# xmcd
#
# Track frame offsets:
#	150
#	23677
#	43592
#	62744
#	113010
#	134063
#	149115
#	203102
#	232493
#	253319
#	275508
#
# Disc length: 3987 seconds
#
# Revision: 2
# Processed by: cddbd v1.5.2PL0 Copyright (c) Steve Scherf et al.
# Submitted via: audiograbber 1.82.02
#
DISCID=b40f910b
DTITLE=Stevie Ray Vaughan - Force Of Nature - Disc 1
DYEAR=1981
DGENRE=Blues
TTITLE0=Boilermaker
TTITLE1=Close To You
TTITLE2=Tell Me
TTITLE3=Let Me Love You
TTITLE4=Day I'm Gone
TTITLE5=Slide Thing
TTITLE6=I'm Leavin' You
TTITLE7=Texas Flood
TTITLE8=Rude Mood 
TTITLE9=Don't Lose Your Cool
TTITLE10=Thunderbird
EXTD=DREAM`Master
EXTT0=
EXTT1=
EXTT2=
EXTT3=
EXTT4=
EXTT5=
EXTT6=
EXTT7=
EXTT8=
EXTT9=
EXTT10=
PLAYORDER=
